<svg xmlns="http://www.w3.org/2000/svg" width="512" height="512"><path d="M504.923 67.248C449.547 25.284 364.331.231 276.968.231c-108.06 0-196.113 37.728-241.58 103.51C14.034 134.636 2.223 171.22.284 212.478c-1.727 36.737 4.442 77.363 18.342 121.073C66.063 191.359 198.536 80 351.259 80c0 0-142.913 37.616-232.762 154.096-.056.069-1.247 1.545-3.307 4.349-18.04 24.139-33.769 51.581-45.539 82.664C49.716 368.524 31.259 433.583 31.259 512h64s-9.715-61.111 7.18-131.395c27.945 3.778 52.929 5.653 75.426 5.653 58.839 0 100.685-12.73 131.694-40.062 27.784-24.489 43.099-57.393 59.312-92.228 24.762-53.204 52.827-113.505 134.327-160.076a16 16 0 001.725-26.644z"/></svg>